PathFileType	4	(X/Y/Z)	C:/Users/opensim2020/Desktop/walking_exp_matlab/subject03_walking10_straight_04.trc	
DataRate	CameraRate	NumFrames	NumMarkers	Units	OrigDataRate	OrigDataStartFrame	OrigNumFrames	
100.00	100.00	8	45	mm	100.00	3942	317	
Frame#	Time	LFHD			RFHD			LBHD			RBHD			C7			T10			CLAV			STRN			RBAK			LSHO			LUPA			LELB			LFRM			LWRA			LWRB			LFIN			RSHO			RUPA			RELB			RFRM			RWRA			RWRB			RFIN			LASI			RASI			LPSI			RPSI			LTHI			LKNE			LTIB			LANK			LHEE			LTOE			RTHI			RKNE			RTIB			RANK			RHEE			RTOE			*39			*40			*41			*42			*43			*44			
		X1	Y1	Z1	X2	Y2	Z2	X3	Y3	Z3	X4	Y4	Z4	X5	Y5	Z5	X6	Y6	Z6	X7	Y7	Z7	X8	Y8	Z8	X9	Y9	Z9	X10	Y10	Z10	X11	Y11	Z11	X12	Y12	Z12	X13	Y13	Z13	X14	Y14	Z14	X15	Y15	Z15	X16	Y16	Z16	X17	Y17	Z17	X18	Y18	Z18	X19	Y19	Z19	X20	Y20	Z20	X21	Y21	Z21	X22	Y22	Z22	X23	Y23	Z23	X24	Y24	Z24	X25	Y25	Z25	X26	Y26	Z26	X27	Y27	Z27	X28	Y28	Z28	X29	Y29	Z29	X30	Y30	Z30	X31	Y31	Z31	X32	Y32	Z32	X33	Y33	Z33	X34	Y34	Z34	X35	Y35	Z35	X36	Y36	Z36	X37	Y37	Z37	X38	Y38	Z38	X39	Y39	Z39	X40	Y40	Z40	X41	Y41	Z41	X42	Y42	Z42	X43	Y43	Z43	X44	Y44	Z44	X45	Y45	Z45	

119	1.180	-962.38141	187.55707	1625.30798	-1095.75073	188.60007	1626.29321	-965.52142	310.86465	1569.56616	-1096.20288	306.97745	1570.55933	-1026.46167	331.63730	1415.63904	-1031.09387	366.91391	1103.55847	-1017.09320	210.64296	1338.11096	-1006.86920	170.72647	1172.76355	-1128.01404	377.27606	1242.35229	-865.19678	264.86951	1376.69458	-795.90948	273.42181	1179.07385	-785.69159	261.62488	1056.18994	-786.38776	225.16417	931.37292	-817.57318	193.59941	816.61377	-768.09204	220.15282	818.23816	-779.02728	197.71017	736.34857	-1179.51758	239.98093	1360.71484	-1254.96082	210.03027	1142.72949	-1268.65454	176.52182	1034.99780	-1272.27856	140.85799	902.69476	-1235.25793	106.17764	809.03656	-1285.25061	126.11755	805.13550	-1277.44165	94.04846	738.30737	-899.91241	208.98438	940.36401	-1136.80725	186.76059	942.01581	-962.43286	366.34006	956.35760	-1111.21899	350.92999	971.20313	-848.96387	200.04211	641.85236	-866.98743	146.42903	469.80960	-873.55963	264.50015	309.91132	-917.16333	371.78049	132.04216	-958.89331	422.09799	116.03267	-932.27789	255.18549	41.19798	-1174.68054	240.83205	646.00360	-1134.50903	234.05783	466.07095	-1138.54590	287.36908	281.96442	-1087.08289	328.53848	69.71880	-1039.18811	377.20993	39.05424	-1061.70007	188.56949	31.58303	-1014.06250	274.51337	1678.45288															 
120	1.190	-962.27948	180.22423	1624.81531	-1095.54956	181.27112	1625.81677	-965.41351	303.86908	1569.86426	-1096.22766	299.94113	1570.74780	-1026.72205	325.03299	1415.55237	-1031.80505	360.54041	1103.41748	-1016.85077	204.18268	1337.90320	-1006.85553	164.46089	1172.49084	-1129.03735	370.19724	1242.52686	-865.20538	259.44510	1376.14429	-795.67969	269.19897	1178.60938	-785.06244	258.04031	1055.66418	-785.67938	221.69646	930.85297	-816.91931	190.33354	816.09247	-767.39032	216.77660	817.69769	-778.27563	194.09906	735.94971	-1179.40845	232.56870	1360.88574	-1255.27368	201.27327	1143.30774	-1269.01477	167.05022	1035.83289	-1272.64355	130.24333	903.70233	-1235.60889	94.71529	810.63885	-1285.38232	114.73477	806.24335	-1277.70544	82.16235	739.82104	-900.26483	202.91684	940.61554	-1137.01050	180.61415	941.52441	-962.57587	360.21872	956.35291	-1111.43030	344.76483	970.94879	-849.63879	190.52861	643.00635	-868.56757	135.30768	471.50601	-874.85437	248.39670	307.81564	-918.10028	348.48090	125.50844	-960.00513	397.92328	107.21570	-931.76813	227.64203	40.06284	-1174.61536	236.09570	645.49860	-1134.46716	230.66011	465.59641	-1138.30164	285.41125	281.85068	-1086.93567	328.22601	69.83852	-1039.36462	376.51437	38.93269	-1061.69299	188.49113	31.57231	-1014.27759	267.25510	1678.81567															 
121	1.200	-962.11200	172.98108	1624.38184	-1095.36511	173.95805	1625.35095	-965.26843	296.83478	1569.93945	-1095.95593	292.87863	1570.92615	-1026.89014	318.30896	1415.40088	-1032.43604	354.16928	1103.27307	-1016.65503	197.70845	1337.54834	-1006.80157	158.14369	1172.16504	-1130.01013	363.05710	1242.60779	-865.15295	253.92241	1375.51660	-795.42529	265.03442	1178.04895	-784.40302	254.49695	1055.04382	-784.99512	218.35133	930.24823	-816.28094	186.91879	815.62946	-766.71948	213.24619	817.12323	-777.52924	190.41614	735.53723	-1179.24976	225.07806	1361.03210	-1255.54285	192.55664	1143.80798	-1269.15088	157.60345	1036.51282	-1272.94482	119.87045	904.91577	-1235.87708	83.61001	811.97919	-1285.69165	103.57471	807.45703	-1277.75659	70.39716	741.32172	-900.52722	196.71211	940.74255	-1137.21094	174.44724	940.97369	-962.66687	354.06934	956.27258	-1111.52429	338.58545	970.59412	-850.20612	181.21535	644.13257	-869.94031	124.47491	473.14102	-876.01514	232.36873	305.57294	-918.84192	324.74698	118.94228	-961.34540	373.27557	98.34116	-930.94257	200.18793	39.16882	-1174.46082	231.51534	644.99841	-1134.35889	227.47252	465.10327	-1138.31396	283.47656	281.72021	-1086.88684	328.02716	70.04427	-1039.31433	376.43481	39.27404	-1061.72595	188.47047	31.53572	-1013.93665	259.43231	1678.55579															 
122	1.210	-961.83405	165.78940	1623.90503	-1095.13831	166.65375	1624.82227	-965.10144	289.93137	1570.09949	-1095.72791	285.78888	1570.96704	-1027.12476	311.62054	1415.17834	-1032.94153	347.76279	1103.03027	-1016.39154	191.14302	1337.18958	-1006.83057	151.84422	1171.69617	-1130.85217	355.96219	1242.64148	-865.08997	248.42661	1374.82666	-795.16522	260.92041	1177.31274	-783.83130	250.92770	1054.44812	-784.44684	214.89764	929.58716	-815.69818	183.59851	815.00952	-766.11292	209.85364	816.51575	-776.80176	186.59691	735.09302	-1179.04517	217.59949	1361.07385	-1255.73242	183.89403	1144.24048	-1269.38464	148.38713	1037.21191	-1273.03479	109.71227	906.01746	-1235.86792	72.54158	813.41931	-1285.63879	92.50830	808.53320	-1277.60303	58.69328	742.68652	-900.65869	190.42223	940.83331	-1137.32068	168.38081	940.34473	-962.68176	347.87021	956.12274	-1111.57556	332.45688	970.19489	-850.65503	172.25729	645.07068	-871.20605	114.14731	474.60519	-877.06885	216.41862	303.17633	-919.71313	300.52136	112.50653	-962.11444	348.02518	89.67249	-930.26544	172.43369	38.71342	-1174.32544	227.12201	644.54095	-1134.25867	224.42526	464.66681	-1138.23291	281.74368	281.65616	-1086.89050	327.88522	70.33784	-1039.42688	375.95462	39.24168	-1061.70166	188.41196	31.48238	-1013.49200	251.79906	1678.58240															 
123	1.220	-961.53162	158.59322	1623.31006	-1094.84424	159.36201	1624.26489	-964.83984	282.85519	1569.95569	-1095.54846	278.76526	1570.91663	-1027.33057	304.87967	1414.87854	-1033.25952	341.35953	1102.77673	-1016.11554	184.57547	1336.73181	-1006.72839	145.43292	1171.18896	-1131.61694	348.83499	1242.62231	-865.01276	242.83604	1374.11108	-794.90924	256.79657	1176.65723	-783.25098	247.18994	1053.75000	-783.87292	211.40755	928.94177	-815.12018	180.14221	814.46979	-765.54266	206.41542	815.87134	-776.01251	182.79140	734.65460	-1178.82446	210.06502	1361.04504	-1255.85046	175.32436	1144.59753	-1269.54260	139.24582	1037.85266	-1273.03735	99.36325	906.79865	-1235.68066	61.65718	814.72900	-1285.39539	81.56214	809.48395	-1277.10913	47.15421	744.04022	-900.71533	184.08347	940.69739	-1137.37476	162.28896	939.67767	-962.57489	341.71646	955.90363	-1111.46802	326.33734	969.78265	-851.01483	163.64783	645.85522	-872.38080	104.22901	475.81259	-878.07538	200.38486	300.62775	-920.41351	275.83743	106.29478	-962.86737	322.85147	81.44550	-929.98682	144.70006	38.27903	-1174.10522	222.77814	644.09497	-1134.19299	221.51997	464.25766	-1137.92590	280.31775	281.62692	-1086.80347	327.72958	70.57281	-1039.27710	375.93930	39.64405	-1061.76587	188.41623	31.54524	-1013.75537	244.69469	1678.50500															 
124	1.230	-961.13611	151.41261	1622.70398	-1094.41577	152.14525	1623.71509	-964.52997	275.88461	1569.78210	-1095.17273	271.66440	1570.71399	-1027.50842	298.05127	1414.57617	-1033.54016	334.99814	1102.49097	-1015.82227	177.92487	1336.20349	-1006.69031	139.02220	1170.61963	-1132.23572	341.72003	1242.55127	-864.88269	237.16864	1373.36450	-794.59937	252.77414	1175.91577	-782.66541	243.57388	1053.09290	-783.38953	207.93242	928.24341	-814.64728	176.80676	813.76703	-765.03308	203.02989	815.17761	-775.29932	178.98305	734.18909	-1178.54810	202.51335	1360.89856	-1255.89893	166.78427	1144.83557	-1269.64001	130.27553	1038.31372	-1272.88062	89.50961	907.67389	-1235.27148	50.97906	815.96631	-1285.00952	70.74032	810.33008	-1276.46082	35.73146	745.29108	-900.73285	177.83525	940.42297	-1137.43689	156.21977	938.99481	-962.38525	335.44400	955.63324	-1111.35107	320.22806	969.36218	-851.25665	155.38918	646.33679	-873.44922	94.82676	476.73511	-878.88159	184.25105	297.92896	-921.11841	250.77068	100.26591	-963.77344	296.37518	73.41518	-930.01807	116.72825	38.24350	-1173.90869	218.54993	643.67340	-1134.09253	218.72130	463.84055	-1137.94702	278.76880	281.57809	-1086.73596	327.57178	70.81599	-1039.16663	375.90482	40.11827	-1061.77295	188.33086	31.49920	-1013.19049	237.16612	1678.35376															 
125	1.240	-960.71344	144.28775	1622.08044	-1093.98340	144.87756	1623.12646	-964.24750	268.91397	1569.51013	-1094.88074	264.61252	1570.57727	-1027.71460	291.24152	1414.18445	-1033.61145	328.58063	1102.11877	-1015.48547	171.29106	1335.61877	-1006.53644	132.61919	1169.97839	-1132.81604	334.59955	1242.42505	-864.75409	231.36282	1372.58130	-794.33887	248.71367	1175.22424	-782.17914	239.97476	1052.35449	-782.84747	204.41516	927.51459	-814.14752	173.46176	813.11456	-764.55383	199.66046	814.49579	-774.59198	175.22803	733.72253	-1178.27332	194.99036	1360.71655	-1255.87073	158.41747	1145.01855	-1269.61438	121.43632	1038.65784	-1272.58618	79.68866	908.34290	-1234.69067	40.50089	817.09283	-1284.41931	60.10095	811.08527	-1275.58264	24.51853	746.45520	-900.64276	171.52623	939.96777	-1137.42285	150.14119	938.30011	-962.10828	329.16254	955.22485	-1111.11475	314.08301	968.93622	-851.38989	147.64352	646.51953	-874.34827	85.78186	477.43753	-879.51288	168.05705	295.16711	-921.75378	225.61423	94.58863	-964.50140	270.30966	66.01456	-930.69611	88.92242	38.28913	-1173.69043	214.34480	643.21771	-1134.04321	216.04686	463.46277	-1137.82690	277.41440	281.62054	-1086.46680	327.50342	71.13350	-1038.86548	376.16495	40.78098	-1061.80457	188.30676	31.50455	-1012.74799	229.77618	1677.95715															 
126	1.250	-960.15546	137.17236	1621.40564	-1093.49780	137.61914	1622.53955	-963.83923	261.92972	1569.13147	-1094.51196	257.47717	1570.22998	-1027.71057	284.29196	1413.80249	-1033.56311	322.18436	1101.75684	-1015.10956	164.58842	1334.98303	-1006.39301	126.17819	1169.33044	-1133.26563	327.54041	1242.26013	-864.56299	225.45561	1371.82349	-794.10101	244.60852	1174.53979	-781.67334	236.29840	1051.62976	-782.40881	200.93010	926.78339	-813.67316	170.03999	812.41937	-764.12726	196.34138	813.76715	-773.88019	171.53011	733.25299	-1177.93433	187.51808	1360.45227	-1255.82898	150.13498	1145.07251	-1269.55957	112.79449	1038.88062	-1272.19836	70.02847	908.91620	-1233.90845	30.21626	818.15155	-1283.51575	49.55902	811.74048	-1274.43054	13.41951	747.53296	-900.59302	165.06396	939.48505	-1137.29614	144.12575	937.62469	-961.65039	322.88916	954.76978	-1110.72571	307.96490	968.47473	-851.46429	140.35709	646.41504	-875.22052	77.04459	477.86212	-880.06793	151.75815	292.49716	-922.31683	200.08403	89.51208	-965.46405	242.43930	58.22812	-931.54956	61.20632	38.62027	-1173.47705	210.15912	642.89581	-1134.02966	213.43893	463.15778	-1138.15002	276.03198	281.41187	-1086.40173	327.31601	71.39494	-1038.82849	376.11481	41.24963	-1061.82471	188.17067	31.57183	-1012.45300	222.54271	1677.51440															 
